PathFileType	4	(X/Y/Z)	C:\Users\Biomechanik\SynologyDrive\AlexP\Athlete_03\Athlete_3_22_07_06\sq_75_EMG\marker_experimental.trc
DataRate	CameraRate	NumFrames	NumMarkers	Units	OrigDataRate	OrigDataStartFrame	OrigNumFrames
200.000000	200.000000	4	58	mm	200.000000	327	1310
Frame#	Time	BL			BR			Athlete_3_RUA2_Opt:GLAB			Athlete_3_RUA2_Opt:RFHD			Athlete_3_RUA2_Opt:LFHD			Athlete_3_RUA2_Opt:C7			Athlete_3_RUA2_Opt:T6			Athlete_3_RUA2_Opt:SPINMOL			Athlete_3_RUA2_Opt:SPINM2			Athlete_3_RUA2_Opt:SPINM3			Athlete_3_RUA2_Opt:T12			Athlete_3_RUA2_Opt:BELTOL			Athlete_3_RUA2_Opt:BELT2			Athlete_3_RUA2_Opt:BELT3			Athlete_3_RUA2_Opt:SACROL			Athlete_3_RUA2_Opt:SACR2			Athlete_3_RUA2_Opt:SACR3			Athlete_3_RUA2_Opt:LTHOL			Athlete_3_RUA2_Opt:LTH2			Athlete_3_RUA2_Opt:LTH3			Athlete_3_RUA2_Opt:LSHAOL			Athlete_3_RUA2_Opt:LSHA2			Athlete_3_RUA2_Opt:LSHA3			Athlete_3_RUA2_Opt:LHEE			Athlete_3_RUA2_Opt:LTOE			Athlete_3_RUA2_Opt:LM5			Athlete_3_RUA2_Opt:RTHOL			Athlete_3_RUA2_Opt:RTH2			Athlete_3_RUA2_Opt:RTH3			Athlete_3_RUA2_Opt:RSHAOL			Athlete_3_RUA2_Opt:RSHA2			Athlete_3_RUA2_Opt:RSHA3			Athlete_3_RUA2_Opt:RHEE			Athlete_3_RUA2_Opt:RTOE			Athlete_3_RUA2_Opt:RM5			Athlete_3_RUA2_Opt:STRN			Athlete_3_RUA2_Opt:XIPH			Athlete_3_RUA2_Opt:LACR			Athlete_3_RUA2_Opt:LUAOL			Athlete_3_RUA2_Opt:LUA2			Athlete_3_RUA2_Opt:LUA3			Athlete_3_RUA2_Opt:LLAOL			Athlete_3_RUA2_Opt:LLA2			Athlete_3_RUA2_Opt:LLA3			Athlete_3_RUA2_Opt:LWRU			Athlete_3_RUA2_Opt:RACR			Athlete_3_RUA2_Opt:RUAOL			Athlete_3_RUA2_Opt:RUA3			Athlete_3_RUA2_Opt:RLAOL			Athlete_3_RUA2_Opt:RLA2			Athlete_3_RUA2_Opt:RLA3			Athlete_3_RUA2_Opt:RWRU			USERMO0			USERMO1			USERMO2			USERMO3			USERMO4			USERMO5			
		X1	Y1	Z1	X2	Y2	Z2	X3	Y3	Z3	X4	Y4	Z4	X5	Y5	Z5	X6	Y6	Z6	X7	Y7	Z7	X8	Y8	Z8	X9	Y9	Z9	X10	Y10	Z10	X11	Y11	Z11	X12	Y12	Z12	X13	Y13	Z13	X14	Y14	Z14	X15	Y15	Z15	X16	Y16	Z16	X17	Y17	Z17	X18	Y18	Z18	X19	Y19	Z19	X20	Y20	Z20	X21	Y21	Z21	X22	Y22	Z22	X23	Y23	Z23	X24	Y24	Z24	X25	Y25	Z25	X26	Y26	Z26	X27	Y27	Z27	X28	Y28	Z28	X29	Y29	Z29	X30	Y30	Z30	X31	Y31	Z31	X32	Y32	Z32	X33	Y33	Z33	X34	Y34	Z34	X35	Y35	Z35	X36	Y36	Z36	X37	Y37	Z37	X38	Y38	Z38	X39	Y39	Z39	X40	Y40	Z40	X41	Y41	Z41	X42	Y42	Z42	X43	Y43	Z43	X44	Y44	Z44	X45	Y45	Z45	X46	Y46	Z46	X47	Y47	Z47	X48	Y48	Z48	X49	Y49	Z49	X50	Y50	Z50	X51	Y51	Z51	X52	Y52	Z52	X53	Y53	Z53	X54	Y54	Z54	X55	Y55	Z55	X56	Y56	Z56	X57	Y57	Z57	X58	Y58	Z58	

328	1.635	129.594970703125	1266.817138671875	-2231.7685546875	200.1705780029297	1271.6025390625	-10.73890590667717	514.8021240234375	1444.973754882812	-1113.026733398438	451.3043518066406	1458.21875	-1039.453125	455.5757446289062	1460.671875	-1193.235229492188	265.9242858886719	1370.98486328125	-1114.658325195312	113.4209213256836	1239.16552734375	-1123.994995117188	92.14990234375	1208.6201171875	-1130.433227539062	58.72722244262695	1153.296875	-1083.295654296875	70.57044982910156	1150.616821289062	-1131.767456054688	56.21746444702148	1094.084594726562	-1132.571533203125	22.41120338439941	1059.187133789062	-1130.99658203125	10.86415958404541	998.7164916992189	-1080.048706054688	6.67643928527832	999.0168457031251	-1130.090942382812	4.501124382019043	926.4648437500001	-1158.769897460938	12.56261253356934	935.5411376953126	-1109.149047851562	-21.42874908447266	879.6058959960939	-1119.971801757812	127.1797409057617	722.3289184570314	-1386.109741210938	84.32305145263672	654.9006347656251	-1382.045166015625	130.9037933349609	662.0003051757814	-1400.158813476562	95.46656799316406	326.9810791015626	-1494.915893554688	63.52852249145508	254.8791046142579	-1501.197265625	109.1156311035156	269.2949829101564	-1514.697631835938	69.73403930664062	35.22167205810556	-1482.100463867188	268.2626037597656	49.58584594726572	-1546.111694335938	197.8932495117188	23.55452919006358	-1634.440795898438	102.1447677612305	693.4762573242188	-877.269287109375	140.520751953125	632.0643310546875	-843.4741821289062	94.77015686035156	632.9970703125	-864.3069458007812	62.57035064697266	317.0869750976563	-775.4359130859375	107.9281463623047	261.5314941406251	-741.3162231445312	64.33661651611328	256.2859191894532	-765.5869750976562	63.54127502441406	35.58715438842778	-789.8729248046875	258.4126586914062	45.8553733825684	-711.7452392578125	189.7420501708984	37.24770355224613	-627.6373901367188	351.4607849121094	1222.452392578125	-1129.535278320312	323.2827453613281	1070.681640625	-1126.042602539062	228.7953948974609	1313.047607421875	-1311.527954101562	96.19107818603516	1225.055786132812	-1331.768188476562	62.20821762084961	1182.693969726562	-1294.361083984375	63.00264358520508	1180.905883789062	-1345.067260742188	43.78212356567383	1147.821044921875	-1422.562744140625	86.92554473876953	1163.689819335938	-1468.77685546875	84.68379211425781	1196.486450195312	-1430.998291015625	132.0697784423828	1239.509765625	-1483.74560546875	245.6954650878906	1311.524658203125	-938.7158813476561	118.6696014404297	1210.477172851562	-899.6334228515624	62.72582244873047	1184.959106445312	-898.0642089843749	68.9632568359375	1175.255004882812	-821.6954956054686	118.2192764282227	1217.256225585938	-824.1311035156249	107.1078109741211	1199.61962890625	-776.9935302734374	143.0016326904297	1236.641479492188	-752.9024047851561	0.0492636002600193	0.01197650004178286	-0.05353949964046478	0.008369839750230312	0.03486260026693344	-0.04452100023627281	0.01540889963507652	0.04802300035953522	-0.02458650059998035	0.08058019727468491	0.1667930036783219	-0.8611540198326111	0.3769629895687103	2.995840072631836	-0.3627159893512724	2.755959987640381	0	0	
329	1.64	129.615234375	1266.6923828125	-2231.785888671875	200.1424865722656	1271.676879882812	-10.75034809112541	514.7769165039062	1445.053588867188	-1112.981689453125	451.2721862792969	1458.276733398438	-1039.41845703125	455.5682067871094	1460.755249023438	-1193.198974609375	265.9104919433594	1371.006225585938	-1114.66650390625	113.4597930908203	1239.157958984375	-1123.999389648438	92.19069671630859	1208.6162109375	-1130.435302734375	58.78300857543945	1153.288330078125	-1083.291015625	70.62024688720703	1150.60888671875	-1131.7666015625	56.26301193237305	1094.089477539062	-1132.5654296875	22.47287178039551	1059.182495117188	-1130.987182617188	10.93901538848877	998.7106323242189	-1080.03857421875	6.745765686035156	999.0102539062501	-1130.0810546875	4.558810234069824	926.4685058593751	-1158.75146484375	12.6297435760498	935.5476074218751	-1109.13671875	-21.36796379089355	879.6192626953126	-1119.958862304688	127.1921234130859	722.3303222656251	-1386.122314453125	84.33022308349609	654.9028930664064	-1382.049072265625	130.9368438720703	661.9821166992189	-1400.131225585938	95.46246337890625	326.982879638672	-1494.919555664062	63.52590560913086	254.8785552978516	-1501.19677734375	109.1112899780273	269.2970581054689	-1514.701904296875	69.73658752441406	35.22399139404306	-1482.098266601562	268.2598876953125	49.58673095703134	-1546.118530273438	197.8883361816406	23.54363059997569	-1634.443481445312	102.2454452514648	693.4872436523438	-877.2417602539062	140.6201019287109	632.0621948242188	-843.469482421875	94.86664581298828	633.0043334960938	-864.290283203125	62.62824630737305	317.0910339355469	-775.4209594726562	107.9794769287109	261.5283813476563	-741.30810546875	64.37413024902344	256.3035583496094	-765.561279296875	63.54467391967773	35.59042739868169	-789.8750610351562	258.4141235351562	45.85277175903325	-711.7454223632812	189.7419586181641	37.24676895141605	-627.6378784179688	351.4989013671875	1222.51123046875	-1129.52734375	323.3993835449219	1070.723388671875	-1126.025756835938	228.7892456054688	1313.060180664062	-1311.52783203125	96.23529052734375	1224.983276367188	-1331.789428710938	62.27113342285156	1182.605712890625	-1294.382690429688	63.08295059204102	1180.80859375	-1345.087890625	43.88210678100586	1147.700439453125	-1422.564453125	87.01919555664062	1163.598876953125	-1468.786010742188	84.75139617919922	1196.399291992188	-1431.005493164062	132.1157531738281	1239.448486328125	-1483.757080078125	245.6905975341797	1311.546264648438	-938.7255859374999	118.7061157226562	1210.448120117188	-899.6424560546874	62.79052352905273	1184.916381835938	-898.0515136718749	69.01381683349609	1175.208984375	-821.6859741210936	118.2535095214844	1217.229125976562	-824.1256103515624	107.1527862548828	1199.588989257812	-776.9882202148436	143.0245513916016	1236.632568359375	-752.8999633789061	0.04904270172119141	0.01206030044704676	-0.05465779826045036	0.008219259791076183	0.03485750034451485	-0.04380699992179871	0.01520960032939911	0.04908810183405876	-0.02429289929568767	0.0793766975402832	0.1678780019283295	-0.8616160154342651	0.3791019916534424	2.997309923171997	-0.3641769886016844	2.756870031356812	0	0	
330	1.645	129.6351318359375	1266.572998046875	-2231.802734375	200.1128692626953	1271.756103515625	-10.76059150695793	514.7520751953125	1445.136596679688	-1112.9375	451.2391967773438	1458.33544921875	-1039.384887695312	455.5596313476562	1460.841552734375	-1193.16357421875	265.8977966308594	1371.028930664062	-1114.675659179688	113.499137878418	1239.151245117188	-1124.004760742188	92.23188018798828	1208.61328125	-1130.438598632812	58.83774566650391	1153.281372070312	-1083.28759765625	70.66996765136719	1150.601806640625	-1131.766357421875	56.30913543701172	1094.094604492188	-1132.559448242188	22.53432464599609	1059.178344726562	-1130.977294921875	11.01298236846924	998.7073364257814	-1080.02783203125	6.814638614654541	999.0040283203126	-1130.070068359375	4.617630004882812	926.4736328125001	-1158.733032226562	12.69985485076904	935.5562133789064	-1109.123046875	-21.30427551269531	879.6342163085939	-1119.943603515625	127.2017669677734	722.3295288085939	-1386.129150390625	84.33481597900391	654.9035644531251	-1382.045166015625	130.9605407714844	661.9656982421876	-1400.105712890625	95.45463562011719	326.9835815429689	-1494.918701171875	63.52062225341797	254.8765411376954	-1501.19287109375	109.1039962768555	269.298797607422	-1514.702880859375	69.73955535888672	35.2263069152833	-1482.095458984375	268.2572937011719	49.58751678466806	-1546.12548828125	197.8833465576172	23.5325870513917	-1634.446044921875	102.3498687744141	693.4995727539062	-877.2105712890625	140.7231597900391	632.0604248046875	-843.4620361328125	94.96681213378906	633.0125732421875	-864.27099609375	62.68682861328125	317.0947570800782	-775.405029296875	108.0315780639648	261.5252685546876	-741.29833984375	64.41188049316406	256.3214416503907	-765.5336303710938	63.54807662963867	35.59369659423833	-789.8771362304688	258.4155883789062	45.85013961791996	-711.7456665039062	189.7418670654297	37.24562835693363	-627.638427734375	351.5367126464844	1222.56884765625	-1129.5205078125	323.5084228515625	1070.765502929688	-1126.009155273438	228.7839202880859	1313.074462890625	-1311.527587890625	96.2760009765625	1224.91455078125	-1331.812255859375	62.33373260498047	1182.52294921875	-1294.403198242188	63.16252899169922	1180.715942382812	-1345.107543945312	43.98184585571289	1147.58349609375	-1422.563842773438	87.11050415039062	1163.511474609375	-1468.795166015625	84.81752014160156	1196.316650390625	-1431.010498046875	132.1610717773438	1239.390014648438	-1483.7685546875	245.687255859375	1311.569946289062	-938.7364501953124	118.7435150146484	1210.420776367188	-899.6516723632811	62.85847854614258	1184.878295898438	-898.0369873046874	69.06485748291016	1175.1650390625	-821.6755981445311	118.2879028320312	1217.204956054688	-824.1203002929686	107.199348449707	1199.561401367188	-776.9832153320311	143.048828125	1236.626586914062	-752.8970336914061	0.04873780161142349	0.01214419957250357	-0.05578609928488731	0.008103890344500542	0.0350738987326622	-0.04305290058255196	0.0150407999753952	0.05039440095424652	-0.02399639971554279	0.07851610332727432	0.1691540032625199	-0.8614349961280823	0.3816649913787842	2.998589992523193	-0.3658320009708403	2.757849931716919	0	0	
331	1.65	129.6548461914062	1266.458984375	-2231.81884765625	200.0818328857422	1271.840209960938	-10.769733428955	514.7271728515625	1445.222290039062	-1112.896606445312	451.2057189941406	1458.394897460938	-1039.354370117188	455.549072265625	1460.929443359375	-1193.130981445312	265.8858947753906	1371.052368164062	-1114.685546875	113.5385971069336	1239.145263671875	-1124.0107421875	92.27315521240234	1208.610961914062	-1130.44287109375	58.89106750488281	1153.276000976562	-1083.28515625	70.71922302246094	1150.595458984375	-1131.766479492188	56.35541152954102	1094.099731445312	-1132.553100585938	22.59490585327148	1059.17431640625	-1130.966552734375	11.08528423309326	998.7061767578126	-1080.015747070312	6.882505416870117	998.9977416992189	-1130.057250976562	4.676995754241943	926.4802856445314	-1158.714477539062	12.77255439758301	935.5662841796876	-1109.108032226562	-21.23785972595215	879.6496582031251	-1119.92578125	127.210563659668	722.3262329101564	-1386.130004882812	84.33837890625	654.9024047851564	-1382.033935546875	130.975830078125	661.9517822265626	-1400.083740234375	95.44504547119141	326.9830932617189	-1494.913330078125	63.51434326171875	254.8731994628907	-1501.185913085938	109.095573425293	269.300018310547	-1514.700317382812	69.74305725097656	35.22860717773447	-1482.091918945312	268.2549133300781	49.58808135986337	-1546.132202148438	197.8783569335938	23.52167892456065	-1634.448486328125	102.4568252563477	693.512939453125	-877.1766967773438	140.8282165527344	632.0590209960938	-843.4517822265625	95.06920623779297	633.0217895507812	-864.2495727539062	62.74519729614258	317.0982971191407	-775.3883056640625	108.0835342407227	261.5222778320313	-741.2870483398438	64.44962310791016	256.3388366699219	-765.5050659179688	63.55144500732422	35.59690475463872	-789.8792724609375	258.4170532226562	45.84754943847661	-711.7459716796875	189.7416839599609	37.24427032470707	-627.638916015625	351.5737915039062	1222.624267578125	-1129.514892578125	323.6084289550781	1070.807373046875	-1125.992919921875	228.7796630859375	1313.09033203125	-1311.527221679688	96.31462097167969	1224.850341796875	-1331.835571289062	62.39535522460938	1182.44677734375	-1294.422729492188	63.24066162109375	1180.629150390625	-1345.126220703125	44.08052444458008	1147.471435546875	-1422.560791015625	87.19893646240234	1163.428344726562	-1468.804321289062	84.882080078125	1196.23876953125	-1431.013916015625	132.2055969238281	1239.334594726562	-1483.780151367188	245.6854705810547	1311.595581054688	-938.7484130859374	118.7816467285156	1210.395263671875	-899.6605224609374	62.92928695678711	1184.844848632812	-898.0205078124999	69.11642456054688	1175.123657226562	-821.6642456054686	118.3225708007812	1217.183715820312	-824.1149902343749	107.2473068237305	1199.537109375	-776.9783935546874	143.0744323730469	1236.62353515625	-752.8936767578124	0.04828489944338799	0.0122220003977418	-0.05686509981751442	0.008028239943087101	0.03549600020051003	-0.04229829832911491	0.01491549983620644	0.05191300064325333	-0.02370340004563331	0.07792489975690842	0.1705610007047654	-0.8610249757766724	0.3846319913864136	2.9997398853302	-0.3676240146160124	2.758939981460571	0	0	
